<mxfile host="app.diagrams.net" modified="2023-08-16T19:28:43.660Z" agent="Mozilla/5.0 (X11; Linux x86_64) AppleWebKit/537.36 (KHTML, like Gecko) Chrome/108.0.0.0 Safari/537.36" etag="MhG9agQy3mZHB4O7gCcg" version="21.6.8" type="github">
  <diagram id="R2lEEEUBdFMjLlhIrx00" name="Page-1">
    <mxGraphModel dx="1374" dy="807" grid="1" gridSize="10" guides="1" tooltips="1" connect="1" arrows="1" fold="1" page="1" pageScale="1" pageWidth="850" pageHeight="1100" math="0" shadow="0" extFonts="Permanent Marker^https://fonts.googleapis.com/css?family=Permanent+Marker">
      <root>
        <mxCell id="0" />
        <mxCell id="1" parent="0" />
        <mxCell id="6z5IoTQNdgrAxRmlZ5fX-1" value="" style="rounded=0;whiteSpace=wrap;html=1;" vertex="1" parent="1">
          <mxGeometry x="120" y="250" width="120" height="60" as="geometry" />
        </mxCell>
        <mxCell id="6z5IoTQNdgrAxRmlZ5fX-2" value="Cliente" style="text;strokeColor=none;align=center;fillColor=none;html=1;verticalAlign=middle;whiteSpace=wrap;rounded=0;" vertex="1" parent="1">
          <mxGeometry x="150" y="265" width="60" height="30" as="geometry" />
        </mxCell>
        <mxCell id="6z5IoTQNdgrAxRmlZ5fX-3" value="" style="rounded=0;whiteSpace=wrap;html=1;" vertex="1" parent="1">
          <mxGeometry x="430" y="250" width="120" height="60" as="geometry" />
        </mxCell>
        <mxCell id="6z5IoTQNdgrAxRmlZ5fX-4" value="Conta" style="text;strokeColor=none;align=center;fillColor=none;html=1;verticalAlign=middle;whiteSpace=wrap;rounded=0;" vertex="1" parent="1">
          <mxGeometry x="455" y="265" width="60" height="30" as="geometry" />
        </mxCell>
        <mxCell id="6z5IoTQNdgrAxRmlZ5fX-5" value="" style="rhombus;whiteSpace=wrap;html=1;" vertex="1" parent="1">
          <mxGeometry x="290" y="255" width="80" height="50" as="geometry" />
        </mxCell>
        <mxCell id="6z5IoTQNdgrAxRmlZ5fX-14" value="1, n" style="text;strokeColor=none;align=center;fillColor=none;html=1;verticalAlign=middle;whiteSpace=wrap;rounded=0;" vertex="1" parent="1">
          <mxGeometry x="380" y="255" width="60" height="15" as="geometry" />
        </mxCell>
        <mxCell id="6z5IoTQNdgrAxRmlZ5fX-15" value="1,1" style="text;strokeColor=none;align=center;fillColor=none;html=1;verticalAlign=middle;whiteSpace=wrap;rounded=0;" vertex="1" parent="1">
          <mxGeometry x="230" y="255" width="60" height="15" as="geometry" />
        </mxCell>
        <mxCell id="6z5IoTQNdgrAxRmlZ5fX-16" value="" style="rounded=0;whiteSpace=wrap;html=1;" vertex="1" parent="1">
          <mxGeometry x="425" y="490" width="120" height="60" as="geometry" />
        </mxCell>
        <mxCell id="6z5IoTQNdgrAxRmlZ5fX-17" value="" style="rhombus;whiteSpace=wrap;html=1;" vertex="1" parent="1">
          <mxGeometry x="445" y="360" width="80" height="60" as="geometry" />
        </mxCell>
        <mxCell id="6z5IoTQNdgrAxRmlZ5fX-20" value="1,1" style="text;strokeColor=none;align=center;fillColor=none;html=1;verticalAlign=middle;whiteSpace=wrap;rounded=0;" vertex="1" parent="1">
          <mxGeometry x="440" y="460" width="45" height="30" as="geometry" />
        </mxCell>
        <mxCell id="6z5IoTQNdgrAxRmlZ5fX-21" value="1, n" style="text;strokeColor=none;align=center;fillColor=none;html=1;verticalAlign=middle;whiteSpace=wrap;rounded=0;" vertex="1" parent="1">
          <mxGeometry x="440" y="305" width="50" height="30" as="geometry" />
        </mxCell>
        <mxCell id="6z5IoTQNdgrAxRmlZ5fX-22" value="Agência" style="text;strokeColor=none;align=center;fillColor=none;html=1;verticalAlign=middle;whiteSpace=wrap;rounded=0;" vertex="1" parent="1">
          <mxGeometry x="450" y="505" width="60" height="30" as="geometry" />
        </mxCell>
        <mxCell id="6z5IoTQNdgrAxRmlZ5fX-23" value="" style="rhombus;whiteSpace=wrap;html=1;" vertex="1" parent="1">
          <mxGeometry x="610" y="255" width="80" height="50" as="geometry" />
        </mxCell>
        <mxCell id="6z5IoTQNdgrAxRmlZ5fX-24" value="" style="rounded=0;whiteSpace=wrap;html=1;" vertex="1" parent="1">
          <mxGeometry x="740" y="250" width="120" height="60" as="geometry" />
        </mxCell>
        <mxCell id="6z5IoTQNdgrAxRmlZ5fX-27" value="Transações" style="text;strokeColor=none;align=center;fillColor=none;html=1;verticalAlign=middle;whiteSpace=wrap;rounded=0;" vertex="1" parent="1">
          <mxGeometry x="770" y="265" width="60" height="30" as="geometry" />
        </mxCell>
        <mxCell id="6z5IoTQNdgrAxRmlZ5fX-28" value="" style="triangle;whiteSpace=wrap;html=1;rotation=-90;" vertex="1" parent="1">
          <mxGeometry x="787.5" y="340" width="25" height="80" as="geometry" />
        </mxCell>
        <mxCell id="6z5IoTQNdgrAxRmlZ5fX-30" value="" style="rounded=0;whiteSpace=wrap;html=1;" vertex="1" parent="1">
          <mxGeometry x="657.5" y="420" width="120" height="60" as="geometry" />
        </mxCell>
        <mxCell id="6z5IoTQNdgrAxRmlZ5fX-31" value="" style="rounded=0;whiteSpace=wrap;html=1;" vertex="1" parent="1">
          <mxGeometry x="822.5" y="420" width="120" height="60" as="geometry" />
        </mxCell>
        <mxCell id="6z5IoTQNdgrAxRmlZ5fX-41" style="edgeStyle=orthogonalEdgeStyle;rounded=0;orthogonalLoop=1;jettySize=auto;html=1;exitX=0.5;exitY=1;exitDx=0;exitDy=0;" edge="1" parent="1" source="6z5IoTQNdgrAxRmlZ5fX-34">
          <mxGeometry relative="1" as="geometry">
            <mxPoint x="131" y="250" as="targetPoint" />
          </mxGeometry>
        </mxCell>
        <mxCell id="6z5IoTQNdgrAxRmlZ5fX-34" value="" style="ellipse;whiteSpace=wrap;html=1;aspect=fixed;" vertex="1" parent="1">
          <mxGeometry x="120" y="210" width="20" height="20" as="geometry" />
        </mxCell>
        <mxCell id="6z5IoTQNdgrAxRmlZ5fX-42" style="edgeStyle=orthogonalEdgeStyle;rounded=0;orthogonalLoop=1;jettySize=auto;html=1;exitX=0.5;exitY=1;exitDx=0;exitDy=0;entryX=0.408;entryY=0.017;entryDx=0;entryDy=0;entryPerimeter=0;" edge="1" parent="1" source="6z5IoTQNdgrAxRmlZ5fX-35" target="6z5IoTQNdgrAxRmlZ5fX-1">
          <mxGeometry relative="1" as="geometry" />
        </mxCell>
        <mxCell id="6z5IoTQNdgrAxRmlZ5fX-35" value="" style="ellipse;whiteSpace=wrap;html=1;aspect=fixed;fillColor=#000000;" vertex="1" parent="1">
          <mxGeometry x="160" y="210" width="20" height="20" as="geometry" />
        </mxCell>
        <mxCell id="6z5IoTQNdgrAxRmlZ5fX-43" style="edgeStyle=orthogonalEdgeStyle;rounded=0;orthogonalLoop=1;jettySize=auto;html=1;exitX=0.5;exitY=1;exitDx=0;exitDy=0;entryX=0.75;entryY=0;entryDx=0;entryDy=0;" edge="1" parent="1" source="6z5IoTQNdgrAxRmlZ5fX-36" target="6z5IoTQNdgrAxRmlZ5fX-1">
          <mxGeometry relative="1" as="geometry" />
        </mxCell>
        <mxCell id="6z5IoTQNdgrAxRmlZ5fX-36" value="" style="ellipse;whiteSpace=wrap;html=1;aspect=fixed;" vertex="1" parent="1">
          <mxGeometry x="200" y="210" width="20" height="20" as="geometry" />
        </mxCell>
        <mxCell id="6z5IoTQNdgrAxRmlZ5fX-38" value="0,n" style="text;strokeColor=none;align=center;fillColor=none;html=1;verticalAlign=middle;whiteSpace=wrap;rounded=0;" vertex="1" parent="1">
          <mxGeometry x="687.5" y="255" width="60" height="15" as="geometry" />
        </mxCell>
        <mxCell id="6z5IoTQNdgrAxRmlZ5fX-39" value="1,1" style="text;strokeColor=none;align=center;fillColor=none;html=1;verticalAlign=middle;whiteSpace=wrap;rounded=0;" vertex="1" parent="1">
          <mxGeometry x="545" y="255" width="60" height="15" as="geometry" />
        </mxCell>
        <mxCell id="6z5IoTQNdgrAxRmlZ5fX-44" value="nome" style="text;strokeColor=none;align=center;fillColor=none;html=1;verticalAlign=middle;whiteSpace=wrap;rounded=0;" vertex="1" parent="1">
          <mxGeometry x="100" y="180" width="60" height="30" as="geometry" />
        </mxCell>
        <mxCell id="6z5IoTQNdgrAxRmlZ5fX-45" value="cpf" style="text;strokeColor=none;align=center;fillColor=none;html=1;verticalAlign=middle;whiteSpace=wrap;rounded=0;" vertex="1" parent="1">
          <mxGeometry x="140" y="180" width="60" height="30" as="geometry" />
        </mxCell>
        <mxCell id="6z5IoTQNdgrAxRmlZ5fX-46" value="data de&lt;br&gt;nascimento" style="text;strokeColor=none;align=center;fillColor=none;html=1;verticalAlign=middle;whiteSpace=wrap;rounded=0;" vertex="1" parent="1">
          <mxGeometry x="190" y="180" width="60" height="30" as="geometry" />
        </mxCell>
        <mxCell id="6z5IoTQNdgrAxRmlZ5fX-56" style="edgeStyle=orthogonalEdgeStyle;rounded=0;orthogonalLoop=1;jettySize=auto;html=1;exitX=0.5;exitY=1;exitDx=0;exitDy=0;" edge="1" parent="1" source="6z5IoTQNdgrAxRmlZ5fX-47">
          <mxGeometry relative="1" as="geometry">
            <mxPoint x="450" y="250" as="targetPoint" />
            <Array as="points">
              <mxPoint x="450" y="247" />
            </Array>
          </mxGeometry>
        </mxCell>
        <mxCell id="6z5IoTQNdgrAxRmlZ5fX-47" value="" style="ellipse;whiteSpace=wrap;html=1;aspect=fixed;fillColor=#000000;" vertex="1" parent="1">
          <mxGeometry x="440" y="210" width="20" height="20" as="geometry" />
        </mxCell>
        <mxCell id="6z5IoTQNdgrAxRmlZ5fX-50" style="edgeStyle=orthogonalEdgeStyle;rounded=0;orthogonalLoop=1;jettySize=auto;html=1;exitX=1;exitY=0.5;exitDx=0;exitDy=0;entryX=0;entryY=0.25;entryDx=0;entryDy=0;" edge="1" parent="1" source="6z5IoTQNdgrAxRmlZ5fX-48" target="6z5IoTQNdgrAxRmlZ5fX-1">
          <mxGeometry relative="1" as="geometry" />
        </mxCell>
        <mxCell id="6z5IoTQNdgrAxRmlZ5fX-48" value="" style="ellipse;whiteSpace=wrap;html=1;aspect=fixed;" vertex="1" parent="1">
          <mxGeometry x="70" y="255" width="20" height="20" as="geometry" />
        </mxCell>
        <mxCell id="6z5IoTQNdgrAxRmlZ5fX-51" style="edgeStyle=orthogonalEdgeStyle;rounded=0;orthogonalLoop=1;jettySize=auto;html=1;exitX=1;exitY=0.5;exitDx=0;exitDy=0;entryX=0;entryY=0.75;entryDx=0;entryDy=0;" edge="1" parent="1" source="6z5IoTQNdgrAxRmlZ5fX-49" target="6z5IoTQNdgrAxRmlZ5fX-1">
          <mxGeometry relative="1" as="geometry" />
        </mxCell>
        <mxCell id="6z5IoTQNdgrAxRmlZ5fX-49" value="" style="ellipse;whiteSpace=wrap;html=1;aspect=fixed;" vertex="1" parent="1">
          <mxGeometry x="70" y="285" width="20" height="20" as="geometry" />
        </mxCell>
        <mxCell id="6z5IoTQNdgrAxRmlZ5fX-52" value="telefone de contato" style="text;strokeColor=none;align=center;fillColor=none;html=1;verticalAlign=middle;whiteSpace=wrap;rounded=0;" vertex="1" parent="1">
          <mxGeometry x="10" y="240" width="70" height="25" as="geometry" />
        </mxCell>
        <mxCell id="6z5IoTQNdgrAxRmlZ5fX-53" value="endereço residencial" style="text;strokeColor=none;align=center;fillColor=none;html=1;verticalAlign=middle;whiteSpace=wrap;rounded=0;" vertex="1" parent="1">
          <mxGeometry x="10" y="285" width="60" height="30" as="geometry" />
        </mxCell>
        <mxCell id="6z5IoTQNdgrAxRmlZ5fX-57" style="edgeStyle=orthogonalEdgeStyle;rounded=0;orthogonalLoop=1;jettySize=auto;html=1;exitX=0.5;exitY=1;exitDx=0;exitDy=0;entryX=0.45;entryY=-0.067;entryDx=0;entryDy=0;entryPerimeter=0;" edge="1" parent="1" source="6z5IoTQNdgrAxRmlZ5fX-54" target="6z5IoTQNdgrAxRmlZ5fX-3">
          <mxGeometry relative="1" as="geometry" />
        </mxCell>
        <mxCell id="6z5IoTQNdgrAxRmlZ5fX-54" value="" style="ellipse;whiteSpace=wrap;html=1;aspect=fixed;" vertex="1" parent="1">
          <mxGeometry x="475" y="210" width="20" height="20" as="geometry" />
        </mxCell>
        <mxCell id="6z5IoTQNdgrAxRmlZ5fX-58" style="edgeStyle=orthogonalEdgeStyle;rounded=0;orthogonalLoop=1;jettySize=auto;html=1;exitX=0.5;exitY=1;exitDx=0;exitDy=0;entryX=0.808;entryY=-0.017;entryDx=0;entryDy=0;entryPerimeter=0;" edge="1" parent="1" source="6z5IoTQNdgrAxRmlZ5fX-55" target="6z5IoTQNdgrAxRmlZ5fX-3">
          <mxGeometry relative="1" as="geometry" />
        </mxCell>
        <mxCell id="6z5IoTQNdgrAxRmlZ5fX-55" value="" style="ellipse;whiteSpace=wrap;html=1;aspect=fixed;" vertex="1" parent="1">
          <mxGeometry x="515" y="210" width="20" height="20" as="geometry" />
        </mxCell>
        <mxCell id="6z5IoTQNdgrAxRmlZ5fX-59" value="código" style="text;strokeColor=none;align=center;fillColor=none;html=1;verticalAlign=middle;whiteSpace=wrap;rounded=0;" vertex="1" parent="1">
          <mxGeometry x="410" y="185" width="60" height="30" as="geometry" />
        </mxCell>
        <mxCell id="6z5IoTQNdgrAxRmlZ5fX-60" value="dono" style="text;strokeColor=none;align=center;fillColor=none;html=1;verticalAlign=middle;whiteSpace=wrap;rounded=0;" vertex="1" parent="1">
          <mxGeometry x="510" y="185" width="60" height="30" as="geometry" />
        </mxCell>
        <mxCell id="6z5IoTQNdgrAxRmlZ5fX-61" value="agência" style="text;strokeColor=none;align=center;fillColor=none;html=1;verticalAlign=middle;whiteSpace=wrap;rounded=0;" vertex="1" parent="1">
          <mxGeometry x="460" y="180" width="60" height="30" as="geometry" />
        </mxCell>
        <mxCell id="6z5IoTQNdgrAxRmlZ5fX-64" style="edgeStyle=orthogonalEdgeStyle;rounded=0;orthogonalLoop=1;jettySize=auto;html=1;exitX=0.5;exitY=1;exitDx=0;exitDy=0;" edge="1" parent="1" source="6z5IoTQNdgrAxRmlZ5fX-62">
          <mxGeometry relative="1" as="geometry">
            <mxPoint x="560" y="240" as="targetPoint" />
          </mxGeometry>
        </mxCell>
        <mxCell id="6z5IoTQNdgrAxRmlZ5fX-65" style="edgeStyle=orthogonalEdgeStyle;rounded=0;orthogonalLoop=1;jettySize=auto;html=1;exitX=0.5;exitY=1;exitDx=0;exitDy=0;entryX=0.917;entryY=0;entryDx=0;entryDy=0;entryPerimeter=0;" edge="1" parent="1" source="6z5IoTQNdgrAxRmlZ5fX-62" target="6z5IoTQNdgrAxRmlZ5fX-3">
          <mxGeometry relative="1" as="geometry" />
        </mxCell>
        <mxCell id="6z5IoTQNdgrAxRmlZ5fX-62" value="" style="ellipse;whiteSpace=wrap;html=1;aspect=fixed;" vertex="1" parent="1">
          <mxGeometry x="550" y="220" width="20" height="20" as="geometry" />
        </mxCell>
        <mxCell id="6z5IoTQNdgrAxRmlZ5fX-66" style="edgeStyle=orthogonalEdgeStyle;rounded=0;orthogonalLoop=1;jettySize=auto;html=1;exitX=0.5;exitY=1;exitDx=0;exitDy=0;entryX=0.075;entryY=0.017;entryDx=0;entryDy=0;entryPerimeter=0;" edge="1" parent="1" source="6z5IoTQNdgrAxRmlZ5fX-63" target="6z5IoTQNdgrAxRmlZ5fX-3">
          <mxGeometry relative="1" as="geometry" />
        </mxCell>
        <mxCell id="6z5IoTQNdgrAxRmlZ5fX-63" value="" style="ellipse;whiteSpace=wrap;html=1;aspect=fixed;" vertex="1" parent="1">
          <mxGeometry x="405" y="220" width="20" height="20" as="geometry" />
        </mxCell>
        <mxCell id="6z5IoTQNdgrAxRmlZ5fX-68" value="saldo" style="text;strokeColor=none;align=center;fillColor=none;html=1;verticalAlign=middle;whiteSpace=wrap;rounded=0;" vertex="1" parent="1">
          <mxGeometry x="350" y="215" width="60" height="30" as="geometry" />
        </mxCell>
        <mxCell id="6z5IoTQNdgrAxRmlZ5fX-69" value="tipo de conta" style="text;strokeColor=none;align=center;fillColor=none;html=1;verticalAlign=middle;whiteSpace=wrap;rounded=0;" vertex="1" parent="1">
          <mxGeometry x="560" y="205" width="60" height="30" as="geometry" />
        </mxCell>
        <mxCell id="6z5IoTQNdgrAxRmlZ5fX-77" style="edgeStyle=orthogonalEdgeStyle;rounded=0;orthogonalLoop=1;jettySize=auto;html=1;exitX=0.5;exitY=0;exitDx=0;exitDy=0;entryX=0.167;entryY=1.05;entryDx=0;entryDy=0;entryPerimeter=0;" edge="1" parent="1" source="6z5IoTQNdgrAxRmlZ5fX-70" target="6z5IoTQNdgrAxRmlZ5fX-16">
          <mxGeometry relative="1" as="geometry" />
        </mxCell>
        <mxCell id="6z5IoTQNdgrAxRmlZ5fX-70" value="" style="ellipse;whiteSpace=wrap;html=1;aspect=fixed;fillColor=#000000;" vertex="1" parent="1">
          <mxGeometry x="435" y="580" width="20" height="20" as="geometry" />
        </mxCell>
        <mxCell id="6z5IoTQNdgrAxRmlZ5fX-75" style="edgeStyle=orthogonalEdgeStyle;rounded=0;orthogonalLoop=1;jettySize=auto;html=1;exitX=0.5;exitY=0;exitDx=0;exitDy=0;entryX=0.5;entryY=1;entryDx=0;entryDy=0;" edge="1" parent="1" source="6z5IoTQNdgrAxRmlZ5fX-71" target="6z5IoTQNdgrAxRmlZ5fX-16">
          <mxGeometry relative="1" as="geometry" />
        </mxCell>
        <mxCell id="6z5IoTQNdgrAxRmlZ5fX-71" value="" style="ellipse;whiteSpace=wrap;html=1;aspect=fixed;" vertex="1" parent="1">
          <mxGeometry x="475" y="580" width="20" height="20" as="geometry" />
        </mxCell>
        <mxCell id="6z5IoTQNdgrAxRmlZ5fX-76" style="edgeStyle=orthogonalEdgeStyle;rounded=0;orthogonalLoop=1;jettySize=auto;html=1;exitX=0.5;exitY=0;exitDx=0;exitDy=0;entryX=0.85;entryY=1.033;entryDx=0;entryDy=0;entryPerimeter=0;" edge="1" parent="1" source="6z5IoTQNdgrAxRmlZ5fX-72" target="6z5IoTQNdgrAxRmlZ5fX-16">
          <mxGeometry relative="1" as="geometry" />
        </mxCell>
        <mxCell id="6z5IoTQNdgrAxRmlZ5fX-72" value="" style="ellipse;whiteSpace=wrap;html=1;aspect=fixed;" vertex="1" parent="1">
          <mxGeometry x="515" y="580" width="20" height="20" as="geometry" />
        </mxCell>
        <mxCell id="6z5IoTQNdgrAxRmlZ5fX-79" value="data de criação" style="text;strokeColor=none;align=center;fillColor=none;html=1;verticalAlign=middle;whiteSpace=wrap;rounded=0;" vertex="1" parent="1">
          <mxGeometry x="330" y="515" width="60" height="30" as="geometry" />
        </mxCell>
        <mxCell id="6z5IoTQNdgrAxRmlZ5fX-80" value="Codigo" style="text;whiteSpace=wrap;html=1;" vertex="1" parent="1">
          <mxGeometry x="415" y="600" width="50" height="40" as="geometry" />
        </mxCell>
        <mxCell id="6z5IoTQNdgrAxRmlZ5fX-81" value="endereco" style="text;whiteSpace=wrap;html=1;" vertex="1" parent="1">
          <mxGeometry x="510" y="600" width="60" height="40" as="geometry" />
        </mxCell>
        <mxCell id="6z5IoTQNdgrAxRmlZ5fX-82" value="nome" style="text;whiteSpace=wrap;html=1;" vertex="1" parent="1">
          <mxGeometry x="470" y="600" width="40" height="40" as="geometry" />
        </mxCell>
        <mxCell id="6z5IoTQNdgrAxRmlZ5fX-86" style="edgeStyle=orthogonalEdgeStyle;rounded=0;orthogonalLoop=1;jettySize=auto;html=1;exitX=1;exitY=0.5;exitDx=0;exitDy=0;entryX=0;entryY=0.75;entryDx=0;entryDy=0;" edge="1" parent="1" source="6z5IoTQNdgrAxRmlZ5fX-84" target="6z5IoTQNdgrAxRmlZ5fX-16">
          <mxGeometry relative="1" as="geometry" />
        </mxCell>
        <mxCell id="6z5IoTQNdgrAxRmlZ5fX-84" value="" style="ellipse;whiteSpace=wrap;html=1;aspect=fixed;" vertex="1" parent="1">
          <mxGeometry x="380" y="520" width="20" height="20" as="geometry" />
        </mxCell>
        <mxCell id="6z5IoTQNdgrAxRmlZ5fX-87" value="Depósito" style="text;strokeColor=none;align=center;fillColor=none;html=1;verticalAlign=middle;whiteSpace=wrap;rounded=0;" vertex="1" parent="1">
          <mxGeometry x="687.5" y="435" width="60" height="30" as="geometry" />
        </mxCell>
        <mxCell id="6z5IoTQNdgrAxRmlZ5fX-88" value="Saque" style="text;strokeColor=none;align=center;fillColor=none;html=1;verticalAlign=middle;whiteSpace=wrap;rounded=0;" vertex="1" parent="1">
          <mxGeometry x="852.5" y="435" width="60" height="30" as="geometry" />
        </mxCell>
        <mxCell id="6z5IoTQNdgrAxRmlZ5fX-92" style="edgeStyle=orthogonalEdgeStyle;rounded=0;orthogonalLoop=1;jettySize=auto;html=1;exitX=0.5;exitY=1;exitDx=0;exitDy=0;entryX=0.15;entryY=-0.017;entryDx=0;entryDy=0;entryPerimeter=0;" edge="1" parent="1" source="6z5IoTQNdgrAxRmlZ5fX-89" target="6z5IoTQNdgrAxRmlZ5fX-24">
          <mxGeometry relative="1" as="geometry" />
        </mxCell>
        <mxCell id="6z5IoTQNdgrAxRmlZ5fX-89" value="" style="ellipse;whiteSpace=wrap;html=1;aspect=fixed;" vertex="1" parent="1">
          <mxGeometry x="750" y="210" width="20" height="20" as="geometry" />
        </mxCell>
        <mxCell id="6z5IoTQNdgrAxRmlZ5fX-93" style="edgeStyle=orthogonalEdgeStyle;rounded=0;orthogonalLoop=1;jettySize=auto;html=1;exitX=0.5;exitY=1;exitDx=0;exitDy=0;entryX=0.5;entryY=0;entryDx=0;entryDy=0;" edge="1" parent="1" source="6z5IoTQNdgrAxRmlZ5fX-90" target="6z5IoTQNdgrAxRmlZ5fX-24">
          <mxGeometry relative="1" as="geometry" />
        </mxCell>
        <mxCell id="6z5IoTQNdgrAxRmlZ5fX-90" value="" style="ellipse;whiteSpace=wrap;html=1;aspect=fixed;" vertex="1" parent="1">
          <mxGeometry x="790" y="210" width="20" height="20" as="geometry" />
        </mxCell>
        <mxCell id="6z5IoTQNdgrAxRmlZ5fX-94" style="edgeStyle=orthogonalEdgeStyle;rounded=0;orthogonalLoop=1;jettySize=auto;html=1;exitX=0.5;exitY=1;exitDx=0;exitDy=0;entryX=0.825;entryY=-0.017;entryDx=0;entryDy=0;entryPerimeter=0;" edge="1" parent="1" source="6z5IoTQNdgrAxRmlZ5fX-91" target="6z5IoTQNdgrAxRmlZ5fX-24">
          <mxGeometry relative="1" as="geometry" />
        </mxCell>
        <mxCell id="6z5IoTQNdgrAxRmlZ5fX-91" value="" style="ellipse;whiteSpace=wrap;html=1;aspect=fixed;" vertex="1" parent="1">
          <mxGeometry x="830" y="210" width="20" height="20" as="geometry" />
        </mxCell>
        <mxCell id="6z5IoTQNdgrAxRmlZ5fX-95" value="tipo" style="text;strokeColor=none;align=center;fillColor=none;html=1;verticalAlign=middle;whiteSpace=wrap;rounded=0;" vertex="1" parent="1">
          <mxGeometry x="727.5" y="185" width="60" height="30" as="geometry" />
        </mxCell>
        <mxCell id="6z5IoTQNdgrAxRmlZ5fX-96" value="conta de origem" style="text;strokeColor=none;align=center;fillColor=none;html=1;verticalAlign=middle;whiteSpace=wrap;rounded=0;" vertex="1" parent="1">
          <mxGeometry x="770" y="175" width="60" height="30" as="geometry" />
        </mxCell>
        <mxCell id="6z5IoTQNdgrAxRmlZ5fX-97" value="valor" style="text;strokeColor=none;align=center;fillColor=none;html=1;verticalAlign=middle;whiteSpace=wrap;rounded=0;" vertex="1" parent="1">
          <mxGeometry x="812.5" y="185" width="60" height="30" as="geometry" />
        </mxCell>
        <mxCell id="6z5IoTQNdgrAxRmlZ5fX-102" value="" style="endArrow=none;html=1;rounded=0;entryX=0;entryY=0.5;entryDx=0;entryDy=0;exitX=1;exitY=0.5;exitDx=0;exitDy=0;" edge="1" parent="1" source="6z5IoTQNdgrAxRmlZ5fX-1" target="6z5IoTQNdgrAxRmlZ5fX-5">
          <mxGeometry width="50" height="50" relative="1" as="geometry">
            <mxPoint x="240" y="305" as="sourcePoint" />
            <mxPoint x="290" y="255" as="targetPoint" />
            <Array as="points" />
          </mxGeometry>
        </mxCell>
        <mxCell id="6z5IoTQNdgrAxRmlZ5fX-103" value="" style="endArrow=none;html=1;rounded=0;exitX=1;exitY=0.5;exitDx=0;exitDy=0;" edge="1" parent="1" source="6z5IoTQNdgrAxRmlZ5fX-5">
          <mxGeometry width="50" height="50" relative="1" as="geometry">
            <mxPoint x="390" y="280" as="sourcePoint" />
            <mxPoint x="430" y="280" as="targetPoint" />
            <Array as="points" />
          </mxGeometry>
        </mxCell>
        <mxCell id="6z5IoTQNdgrAxRmlZ5fX-104" value="" style="endArrow=none;html=1;rounded=0;exitX=1;exitY=0.5;exitDx=0;exitDy=0;" edge="1" parent="1" source="6z5IoTQNdgrAxRmlZ5fX-3">
          <mxGeometry width="50" height="50" relative="1" as="geometry">
            <mxPoint x="570" y="280" as="sourcePoint" />
            <mxPoint x="610" y="280" as="targetPoint" />
            <Array as="points" />
          </mxGeometry>
        </mxCell>
        <mxCell id="6z5IoTQNdgrAxRmlZ5fX-105" value="" style="endArrow=none;html=1;rounded=0;exitX=1;exitY=0.5;exitDx=0;exitDy=0;" edge="1" parent="1">
          <mxGeometry width="50" height="50" relative="1" as="geometry">
            <mxPoint x="730" y="280" as="sourcePoint" />
            <mxPoint x="740" y="280" as="targetPoint" />
            <Array as="points">
              <mxPoint x="690" y="280" />
            </Array>
          </mxGeometry>
        </mxCell>
        <mxCell id="6z5IoTQNdgrAxRmlZ5fX-106" value="" style="endArrow=none;html=1;rounded=0;entryX=0.5;entryY=1;entryDx=0;entryDy=0;exitX=1;exitY=0.5;exitDx=0;exitDy=0;" edge="1" parent="1" source="6z5IoTQNdgrAxRmlZ5fX-28" target="6z5IoTQNdgrAxRmlZ5fX-24">
          <mxGeometry width="50" height="50" relative="1" as="geometry">
            <mxPoint x="800" y="360" as="sourcePoint" />
            <mxPoint x="840" y="340" as="targetPoint" />
            <Array as="points" />
          </mxGeometry>
        </mxCell>
        <mxCell id="6z5IoTQNdgrAxRmlZ5fX-107" value="" style="endArrow=none;html=1;rounded=0;entryX=-0.06;entryY=0.025;entryDx=0;entryDy=0;exitX=0.5;exitY=0;exitDx=0;exitDy=0;entryPerimeter=0;" edge="1" parent="1" source="6z5IoTQNdgrAxRmlZ5fX-30" target="6z5IoTQNdgrAxRmlZ5fX-28">
          <mxGeometry width="50" height="50" relative="1" as="geometry">
            <mxPoint x="750" y="400" as="sourcePoint" />
            <mxPoint x="750" y="342" as="targetPoint" />
            <Array as="points" />
          </mxGeometry>
        </mxCell>
        <mxCell id="6z5IoTQNdgrAxRmlZ5fX-108" value="" style="endArrow=none;html=1;rounded=0;entryX=-0.02;entryY=1.013;entryDx=0;entryDy=0;exitX=0.5;exitY=0;exitDx=0;exitDy=0;entryPerimeter=0;" edge="1" parent="1" source="6z5IoTQNdgrAxRmlZ5fX-31" target="6z5IoTQNdgrAxRmlZ5fX-28">
          <mxGeometry width="50" height="50" relative="1" as="geometry">
            <mxPoint x="880" y="380" as="sourcePoint" />
            <mxPoint x="880" y="322" as="targetPoint" />
            <Array as="points" />
          </mxGeometry>
        </mxCell>
        <mxCell id="6z5IoTQNdgrAxRmlZ5fX-109" value="" style="endArrow=none;html=1;rounded=0;entryX=0.5;entryY=1;entryDx=0;entryDy=0;" edge="1" parent="1">
          <mxGeometry width="50" height="50" relative="1" as="geometry">
            <mxPoint x="485" y="360" as="sourcePoint" />
            <mxPoint x="485" y="310" as="targetPoint" />
            <Array as="points">
              <mxPoint x="485" y="338" />
            </Array>
          </mxGeometry>
        </mxCell>
        <mxCell id="6z5IoTQNdgrAxRmlZ5fX-110" value="" style="endArrow=none;html=1;rounded=0;entryX=0.5;entryY=1;entryDx=0;entryDy=0;exitX=1;exitY=1;exitDx=0;exitDy=0;" edge="1" parent="1" source="6z5IoTQNdgrAxRmlZ5fX-20">
          <mxGeometry width="50" height="50" relative="1" as="geometry">
            <mxPoint x="484" y="478" as="sourcePoint" />
            <mxPoint x="484" y="420" as="targetPoint" />
            <Array as="points">
              <mxPoint x="484" y="458" />
            </Array>
          </mxGeometry>
        </mxCell>
      </root>
    </mxGraphModel>
  </diagram>
</mxfile>
